<mxfile host="app.diagrams.net" modified="2024-01-17T05:05:42.932Z" agent="Mozilla/5.0 (Windows NT 10.0; Win64; x64) AppleWebKit/537.36 (KHTML, like Gecko) Chrome/120.0.0.0 Safari/537.36" etag="AGDOoU8Gs-pwj79utL1C" version="22.1.18" type="github">
  <diagram name="Page-1" id="2YBvvXClWsGukQMizWep">
    <mxGraphModel dx="744" dy="827" grid="1" gridSize="10" guides="1" tooltips="1" connect="1" arrows="1" fold="1" page="1" pageScale="1" pageWidth="850" pageHeight="1100" math="0" shadow="0">
      <root>
        <mxCell id="0" />
        <mxCell id="1" parent="0" />
        <mxCell id="VaCzrztjcww_9SY8ILgu-3" value="" style="edgeStyle=none;curved=1;rounded=0;orthogonalLoop=1;jettySize=auto;html=1;fontSize=12;startSize=8;endSize=8;" edge="1" parent="1" source="VaCzrztjcww_9SY8ILgu-1" target="VaCzrztjcww_9SY8ILgu-2">
          <mxGeometry relative="1" as="geometry" />
        </mxCell>
        <mxCell id="VaCzrztjcww_9SY8ILgu-19" style="edgeStyle=none;curved=1;rounded=0;orthogonalLoop=1;jettySize=auto;html=1;exitX=1;exitY=0.5;exitDx=0;exitDy=0;fontSize=12;startSize=8;endSize=8;entryX=0.5;entryY=0;entryDx=0;entryDy=0;" edge="1" parent="1" source="VaCzrztjcww_9SY8ILgu-2" target="VaCzrztjcww_9SY8ILgu-13">
          <mxGeometry relative="1" as="geometry">
            <mxPoint x="670" y="100" as="targetPoint" />
            <Array as="points">
              <mxPoint x="650" y="200" />
            </Array>
          </mxGeometry>
        </mxCell>
        <mxCell id="VaCzrztjcww_9SY8ILgu-20" value="是" style="edgeLabel;html=1;align=center;verticalAlign=middle;resizable=0;points=[];fontSize=16;" vertex="1" connectable="0" parent="VaCzrztjcww_9SY8ILgu-19">
          <mxGeometry x="-0.8587" y="-5" relative="1" as="geometry">
            <mxPoint as="offset" />
          </mxGeometry>
        </mxCell>
        <mxCell id="VaCzrztjcww_9SY8ILgu-1" value="execute(Runnable command)" style="rounded=0;whiteSpace=wrap;html=1;fontSize=16;" vertex="1" parent="1">
          <mxGeometry x="210" y="70" width="230" height="60" as="geometry" />
        </mxCell>
        <mxCell id="VaCzrztjcww_9SY8ILgu-5" value="" style="edgeStyle=none;curved=1;rounded=0;orthogonalLoop=1;jettySize=auto;html=1;fontSize=12;startSize=8;endSize=8;" edge="1" parent="1" source="VaCzrztjcww_9SY8ILgu-2" target="VaCzrztjcww_9SY8ILgu-4">
          <mxGeometry relative="1" as="geometry" />
        </mxCell>
        <mxCell id="VaCzrztjcww_9SY8ILgu-8" value="否" style="edgeLabel;html=1;align=center;verticalAlign=middle;resizable=0;points=[];fontSize=16;" vertex="1" connectable="0" parent="VaCzrztjcww_9SY8ILgu-5">
          <mxGeometry x="0.0267" relative="1" as="geometry">
            <mxPoint y="-4" as="offset" />
          </mxGeometry>
        </mxCell>
        <mxCell id="VaCzrztjcww_9SY8ILgu-2" value="线程数&amp;lt;corePoolSize" style="rhombus;whiteSpace=wrap;html=1;fontSize=16;rounded=0;" vertex="1" parent="1">
          <mxGeometry x="222.5" y="160" width="205" height="80" as="geometry" />
        </mxCell>
        <mxCell id="VaCzrztjcww_9SY8ILgu-7" value="" style="edgeStyle=none;curved=1;rounded=0;orthogonalLoop=1;jettySize=auto;html=1;fontSize=12;startSize=8;endSize=8;" edge="1" parent="1" source="VaCzrztjcww_9SY8ILgu-4" target="VaCzrztjcww_9SY8ILgu-6">
          <mxGeometry relative="1" as="geometry" />
        </mxCell>
        <mxCell id="VaCzrztjcww_9SY8ILgu-9" value="否" style="edgeLabel;html=1;align=center;verticalAlign=middle;resizable=0;points=[];fontSize=16;" vertex="1" connectable="0" parent="VaCzrztjcww_9SY8ILgu-7">
          <mxGeometry x="-0.18" relative="1" as="geometry">
            <mxPoint as="offset" />
          </mxGeometry>
        </mxCell>
        <mxCell id="VaCzrztjcww_9SY8ILgu-11" value="" style="edgeStyle=none;curved=1;rounded=0;orthogonalLoop=1;jettySize=auto;html=1;fontSize=12;startSize=8;endSize=8;" edge="1" parent="1" source="VaCzrztjcww_9SY8ILgu-4" target="VaCzrztjcww_9SY8ILgu-10">
          <mxGeometry relative="1" as="geometry" />
        </mxCell>
        <mxCell id="VaCzrztjcww_9SY8ILgu-12" value="是" style="edgeLabel;html=1;align=center;verticalAlign=middle;resizable=0;points=[];fontSize=16;" vertex="1" connectable="0" parent="VaCzrztjcww_9SY8ILgu-11">
          <mxGeometry x="-0.0112" relative="1" as="geometry">
            <mxPoint as="offset" />
          </mxGeometry>
        </mxCell>
        <mxCell id="VaCzrztjcww_9SY8ILgu-4" value="阻塞队列不满" style="rhombus;whiteSpace=wrap;html=1;fontSize=16;rounded=0;" vertex="1" parent="1">
          <mxGeometry x="222.5" y="290" width="205" height="80" as="geometry" />
        </mxCell>
        <mxCell id="VaCzrztjcww_9SY8ILgu-14" value="" style="edgeStyle=none;curved=1;rounded=0;orthogonalLoop=1;jettySize=auto;html=1;fontSize=12;startSize=8;endSize=8;" edge="1" parent="1" source="VaCzrztjcww_9SY8ILgu-6" target="VaCzrztjcww_9SY8ILgu-13">
          <mxGeometry relative="1" as="geometry" />
        </mxCell>
        <mxCell id="VaCzrztjcww_9SY8ILgu-15" value="是" style="edgeLabel;html=1;align=center;verticalAlign=middle;resizable=0;points=[];fontSize=16;" vertex="1" connectable="0" parent="VaCzrztjcww_9SY8ILgu-14">
          <mxGeometry x="-0.5312" y="-2" relative="1" as="geometry">
            <mxPoint as="offset" />
          </mxGeometry>
        </mxCell>
        <mxCell id="VaCzrztjcww_9SY8ILgu-17" value="" style="edgeStyle=none;curved=1;rounded=0;orthogonalLoop=1;jettySize=auto;html=1;fontSize=12;startSize=8;endSize=8;" edge="1" parent="1" source="VaCzrztjcww_9SY8ILgu-6" target="VaCzrztjcww_9SY8ILgu-16">
          <mxGeometry relative="1" as="geometry" />
        </mxCell>
        <mxCell id="VaCzrztjcww_9SY8ILgu-18" value="是" style="edgeLabel;html=1;align=center;verticalAlign=middle;resizable=0;points=[];fontSize=16;" vertex="1" connectable="0" parent="VaCzrztjcww_9SY8ILgu-17">
          <mxGeometry x="-0.1574" y="2" relative="1" as="geometry">
            <mxPoint x="-2" as="offset" />
          </mxGeometry>
        </mxCell>
        <mxCell id="VaCzrztjcww_9SY8ILgu-6" value="线程数&amp;lt;maximumPoolSize" style="rhombus;whiteSpace=wrap;html=1;fontSize=16;rounded=0;" vertex="1" parent="1">
          <mxGeometry x="222.5" y="410" width="205" height="80" as="geometry" />
        </mxCell>
        <mxCell id="VaCzrztjcww_9SY8ILgu-10" value="添加到阻塞队列" style="whiteSpace=wrap;html=1;fontSize=16;rounded=0;" vertex="1" parent="1">
          <mxGeometry x="40" y="300" width="120" height="60" as="geometry" />
        </mxCell>
        <mxCell id="VaCzrztjcww_9SY8ILgu-13" value="addWorker()" style="whiteSpace=wrap;html=1;fontSize=16;rounded=0;" vertex="1" parent="1">
          <mxGeometry x="590" y="420" width="120" height="60" as="geometry" />
        </mxCell>
        <mxCell id="VaCzrztjcww_9SY8ILgu-16" value="拒绝任务" style="whiteSpace=wrap;html=1;fontSize=16;rounded=0;" vertex="1" parent="1">
          <mxGeometry x="265" y="550" width="120" height="60" as="geometry" />
        </mxCell>
      </root>
    </mxGraphModel>
  </diagram>
</mxfile>
